<svg width="75" height="75" viewBox="0 0 75 75" fill="none" xmlns="http://www.w3.org/2000/svg">
<circle cx="37.5" cy="37.5" r="36.25" stroke="#FB7000" stroke-width="2.5"/>
<g clip-path="url(#clip0_70_4383)">
<path d="M50.2953 44.6637C48.2414 42.907 46.1569 41.8429 44.1282 43.5969L42.9168 44.6571C42.0305 45.4266 40.3826 49.0223 34.0111 41.6929C27.641 34.3728 31.4318 33.2331 32.3194 32.4701L33.5374 31.4087C35.5555 29.6506 34.7939 27.4375 33.3384 25.1593L32.4601 23.7794C30.9979 21.5066 29.4057 20.0139 27.3823 21.7693L26.289 22.7246C25.3947 23.3761 22.8949 25.4937 22.2886 29.5166C21.5588 34.3436 23.8609 39.8712 29.135 45.9361C34.4025 52.0037 39.5599 55.0514 44.4453 54.9984C48.5054 54.9546 50.9574 52.7759 51.7243 51.9838L52.8216 51.0272C54.8397 49.2731 53.5858 47.4872 51.5306 45.7265L50.2953 44.6637Z" fill="#FB7000"/>
</g>
<defs>
<clipPath id="clip0_70_4383">
<rect width="34" height="34" fill="white" transform="translate(21 21)"/>
</clipPath>
</defs>
</svg>
