<svg width="75" height="75" viewBox="0 0 75 75" fill="none" xmlns="http://www.w3.org/2000/svg">
<circle cx="37.5" cy="37.5" r="36.7" stroke="#FB7000" stroke-width="1.6"/>
<g clip-path="url(#clip0_70_4396)">
<path d="M54.2256 27.6794L43.1973 38.6368L54.2256 49.5941C54.425 49.1774 54.5459 48.7167 54.5459 48.2248V29.0487C54.5459 28.5567 54.425 28.0961 54.2256 27.6794Z" fill="#FB7000"/>
<path d="M51.3496 25.8527H21.378C20.8861 25.8527 20.4255 25.9736 20.0088 26.173L34.1042 40.1973C35.3505 41.4436 37.3772 41.4436 38.6235 40.1973L52.7189 26.173C52.3022 25.9736 51.8416 25.8527 51.3496 25.8527Z" fill="#FB7000"/>
<path d="M18.502 27.6794C18.3026 28.0961 18.1816 28.5567 18.1816 29.0487V48.2248C18.1816 48.7168 18.3026 49.1775 18.502 49.5941L29.5303 38.6368L18.502 27.6794Z" fill="#FB7000"/>
<path d="M41.6905 40.1428L40.13 41.7034C38.0533 43.78 34.6743 43.78 32.5976 41.7034L31.0371 40.1428L20.0088 51.1001C20.4255 51.2995 20.8861 51.4205 21.378 51.4205H51.3496C51.8416 51.4205 52.3022 51.2995 52.7189 51.1001L41.6905 40.1428Z" fill="#FB7000"/>
</g>
<defs>
<clipPath id="clip0_70_4396">
<rect width="36.3636" height="36.3636" fill="white" transform="translate(18.1816 20.4548)"/>
</clipPath>
</defs>
</svg>
