<svg width="75" height="75" viewBox="0 0 75 75" fill="none" xmlns="http://www.w3.org/2000/svg">
<circle cx="37.5" cy="37.5" r="36.7" stroke="#FB7000" stroke-width="1.6"/>
<g clip-path="url(#clip0_78_705)">
<path d="M37.5 20C30.2638 20 24.375 25.9296 24.375 33.2198C24.375 43.5783 36.2663 54.2738 36.7723 54.7229C36.9808 54.9081 37.2404 55 37.5 55C37.7596 55 38.0192 54.9081 38.2277 54.7244C38.7337 54.2738 50.625 43.5783 50.625 33.2198C50.625 25.9296 44.7362 20 37.5 20ZM37.5 40.4167C33.4794 40.4167 30.2083 37.1456 30.2083 33.125C30.2083 29.1044 33.4794 25.8333 37.5 25.8333C41.5206 25.8333 44.7917 29.1044 44.7917 33.125C44.7917 37.1456 41.5206 40.4167 37.5 40.4167Z" fill="#FB7000"/>
</g>
<defs>
<clipPath id="clip0_78_705">
<rect width="35" height="35" fill="white" transform="translate(20 20)"/>
</clipPath>
</defs>
</svg>
