<svg width="32" height="32" viewBox="0 0 32 32" fill="none" xmlns="http://www.w3.org/2000/svg">
<path d="M0 16C0 24.8366 7.16344 32 16 32C24.8366 32 32 24.8366 32 16C32 7.16344 24.8366 0 16 0C7.16344 0 0 7.16344 0 16Z" fill="#FB7000"/>
<g clip-path="url(#clip0_70_4254)">
<path d="M20.6511 10.9606C20.437 10.9606 20.2627 11.1349 20.2627 11.349C20.2627 11.5632 20.437 11.7374 20.6511 11.7374C20.8653 11.7374 21.0396 11.5632 21.0396 11.349C21.0396 11.1348 20.8653 10.9606 20.6511 10.9606Z" fill="white"/>
<path d="M16.0003 12.5564C14.1015 12.5564 12.5566 14.1012 12.5566 16C12.5566 17.8988 14.1015 19.4437 16.0003 19.4437C17.8991 19.4437 19.4439 17.8989 19.4439 16.0001C19.4439 14.1012 17.8991 12.5564 16.0003 12.5564Z" fill="white"/>
<path d="M19.6138 8H12.3862C9.96762 8 8 9.96763 8 12.3862V19.6138C8 22.0324 9.96762 24 12.3862 24H19.6138C22.0324 24 24 22.0324 24 19.6138V12.3862C24 9.96763 22.0324 8 19.6138 8ZM16 20.3885C13.5802 20.3885 11.6115 18.4198 11.6115 16C11.6115 13.5802 13.5802 11.6116 16 11.6116C18.4198 11.6116 20.3885 13.5802 20.3885 16C20.3885 18.4198 18.4198 20.3885 16 20.3885ZM20.651 12.6824C19.9158 12.6824 19.3177 12.0842 19.3177 11.3491C19.3177 10.6139 19.9158 10.0157 20.651 10.0157C21.3862 10.0157 21.9843 10.6138 21.9843 11.349C21.9843 12.0842 21.3862 12.6824 20.651 12.6824Z" fill="white"/>
</g>
<defs>
<clipPath id="clip0_70_4254">
<rect width="16" height="16" fill="white" transform="translate(8 8)"/>
</clipPath>
</defs>
</svg>
